<svg width="30" height="30" viewBox="0 0 30 30" fill="none" xmlns="http://www.w3.org/2000/svg">
<path fill-rule="evenodd" clip-rule="evenodd" d="M12.516 5.53843C12.8321 5.19477 13.2161 4.92044 13.6436 4.73278C14.0712 4.54513 14.5331 4.44824 15 4.44824C15.4669 4.44824 15.9288 4.54513 16.3564 4.73278C16.7839 4.92044 17.1679 5.19477 17.484 5.53843L23.265 11.8234C24.2197 12.8614 24.7497 14.2201 24.75 15.6304V20.6254C24.75 21.7194 24.3154 22.7687 23.5418 23.5422C22.7682 24.3158 21.719 24.7504 20.625 24.7504H18C17.4033 24.7504 16.831 24.5134 16.409 24.0914C15.9871 23.6695 15.75 23.0972 15.75 22.5004V19.5004H14.25V22.5004C14.25 23.0972 14.0129 23.6695 13.591 24.0914C13.169 24.5134 12.5967 24.7504 12 24.7504H9.375C8.28098 24.7504 7.23177 24.3158 6.45818 23.5422C5.6846 22.7687 5.25 21.7194 5.25 20.6254V15.6304C5.25 14.2204 5.7795 12.8599 6.735 11.8219L12.516 5.53843ZM15.828 7.06243C15.7226 6.94788 15.5946 6.85643 15.4521 6.79388C15.3096 6.73133 15.1556 6.69903 15 6.69903C14.8444 6.69903 14.6904 6.73133 14.5479 6.79388C14.4054 6.85643 14.2774 6.94788 14.172 7.06243L8.391 13.3459C7.81809 13.9688 7.50008 14.7842 7.5 15.6304V20.6254C7.5 21.6604 8.34 22.5004 9.375 22.5004H12V19.5004C12 18.9037 12.2371 18.3314 12.659 17.9094C13.081 17.4875 13.6533 17.2504 14.25 17.2504H15.75C16.3467 17.2504 16.919 17.4875 17.341 17.9094C17.7629 18.3314 18 18.9037 18 19.5004V22.5004H20.625C21.66 22.5004 22.5 21.6604 22.5 20.6254V15.6304C22.4999 14.7842 22.1819 13.9688 21.609 13.3459L15.828 7.06093V7.06243Z" fill="black"/>
</svg>
