<svg width="30" height="30" viewBox="0 0 30 30" fill="none" xmlns="http://www.w3.org/2000/svg">
<path fill-rule="evenodd" clip-rule="evenodd" d="M19.5 15C19.5 16.1935 19.0259 17.3381 18.182 18.182C17.3381 19.0259 16.1935 19.5 15 19.5C13.8065 19.5 12.6619 19.0259 11.818 18.182C10.9741 17.3381 10.5 16.1935 10.5 15C10.5 13.8065 10.9741 12.6619 11.818 11.818C12.6619 10.9741 13.8065 10.5 15 10.5C16.1935 10.5 17.3381 10.9741 18.182 11.818C19.0259 12.6619 19.5 13.8065 19.5 15ZM17.25 15C17.25 15.5967 17.0129 16.169 16.591 16.591C16.169 17.0129 15.5967 17.25 15 17.25C14.4033 17.25 13.831 17.0129 13.409 16.591C12.9871 16.169 12.75 15.5967 12.75 15C12.75 14.4033 12.9871 13.831 13.409 13.409C13.831 12.9871 14.4033 12.75 15 12.75C15.5967 12.75 16.169 12.9871 16.591 13.409C17.0129 13.831 17.25 14.4033 17.25 15Z" fill="black"/>
<path fill-rule="evenodd" clip-rule="evenodd" d="M15 6C11.286 6 8.478 7.845 6.6345 9.798C5.81359 10.6648 5.10778 11.6338 4.5345 12.681C4.31902 13.0755 4.13349 13.4857 3.9795 13.908C3.8565 14.2485 3.75 14.64 3.75 15C3.75 15.36 3.8565 15.7515 3.978 16.092C4.11 16.461 4.2975 16.878 4.5345 17.319C5.01 18.1995 5.7105 19.224 6.6345 20.202C8.478 22.155 11.2845 24 15 24C18.714 24 21.522 22.155 23.3655 20.202C24.1864 19.3352 24.8922 18.3662 25.4655 17.319C25.681 16.9245 25.8665 16.5143 26.0205 16.092C26.1435 15.7515 26.25 15.36 26.25 15C26.25 14.64 26.1435 14.2485 26.022 13.908C25.8675 13.4856 25.6815 13.0755 25.4655 12.681C24.8922 11.6338 24.1864 10.6649 23.3655 9.798C21.522 7.845 18.7155 6 15 6ZM6.0015 15.003V14.997C6.0075 14.967 6.027 14.862 6.0975 14.6625C6.21369 14.3486 6.35308 14.0437 6.5145 13.7505C6.99407 12.8762 7.58389 12.0671 8.2695 11.343C9.8325 9.687 12.087 8.25 15 8.25C17.913 8.25 20.1675 9.687 21.729 11.343C22.4146 12.0671 23.0044 12.8762 23.484 13.7505C23.679 14.1105 23.8155 14.421 23.9025 14.6625C23.973 14.8605 23.9925 14.967 23.9985 14.997V15.003C23.9925 15.033 23.973 15.138 23.9025 15.3375C23.7863 15.6514 23.6469 15.9563 23.4855 16.2495C23.0059 17.1238 22.4161 17.9329 21.7305 18.657C20.1675 20.313 17.913 21.75 15 21.75C12.087 21.75 9.8325 20.313 8.271 18.657C7.58537 17.9329 6.99554 17.1238 6.516 16.2495C6.35407 15.9563 6.21418 15.6515 6.0975 15.3375C6.027 15.1395 6.0075 15.033 6.0015 15.003Z" fill="black"/>
</svg>
