<svg width="30" height="30" viewBox="0 0 30 30" fill="none" xmlns="http://www.w3.org/2000/svg">
<path fill-rule="evenodd" clip-rule="evenodd" d="M3.75 5.625C3.75 5.32663 3.86853 5.04048 4.0795 4.8295C4.29048 4.61853 4.57663 4.5 4.875 4.5H7.293C7.92421 4.50002 8.53428 4.72748 9.01142 5.14071C9.48856 5.55394 9.80083 6.12527 9.891 6.75H24.375C24.5301 6.74995 24.6835 6.78197 24.8257 6.84405C24.9678 6.90613 25.0956 6.99693 25.2009 7.11075C25.3063 7.22456 25.387 7.35894 25.4379 7.50543C25.4889 7.65192 25.509 7.80737 25.497 7.962L24.96 14.9415C24.8803 15.9777 24.4123 16.9456 23.6498 17.6517C22.8872 18.3578 21.8863 18.75 20.847 18.75H11.3205L11.46 19.92C11.471 20.011 11.5149 20.0947 11.5834 20.1555C11.652 20.2163 11.7404 20.2499 11.832 20.25H21.375C21.6734 20.25 21.9595 20.3685 22.1705 20.5795C22.3815 20.7905 22.5 21.0766 22.5 21.375C22.5 21.6734 22.3815 21.9595 22.1705 22.1705C21.9595 22.3815 21.6734 22.5 21.375 22.5H11.832C11.1895 22.5001 10.5693 22.2646 10.0888 21.838C9.60834 21.4114 9.301 20.8235 9.225 20.1855L7.665 7.08C7.65401 6.98905 7.6101 6.90527 7.54156 6.84447C7.47303 6.78368 7.38461 6.75007 7.293 6.75H4.875C4.57663 6.75 4.29048 6.63147 4.0795 6.4205C3.86853 6.20952 3.75 5.92337 3.75 5.625ZM11.052 16.5H20.847C21.3193 16.4999 21.7741 16.3215 22.1206 16.0006C22.4671 15.6797 22.6797 15.2399 22.716 14.769L23.16 9H10.1595L11.052 16.5Z" fill="black"/>
<path d="M15 25.5C15 25.8978 14.842 26.2794 14.5607 26.5607C14.2794 26.842 13.8978 27 13.5 27C13.1022 27 12.7206 26.842 12.4393 26.5607C12.158 26.2794 12 25.8978 12 25.5C12 25.1022 12.158 24.7206 12.4393 24.4393C12.7206 24.158 13.1022 24 13.5 24C13.8978 24 14.2794 24.158 14.5607 24.4393C14.842 24.7206 15 25.1022 15 25.5Z" fill="black"/>
<path d="M22.5 25.5C22.5 25.8978 22.342 26.2794 22.0607 26.5607C21.7794 26.842 21.3978 27 21 27C20.6022 27 20.2206 26.842 19.9393 26.5607C19.658 26.2794 19.5 25.8978 19.5 25.5C19.5 25.1022 19.658 24.7206 19.9393 24.4393C20.2206 24.158 20.6022 24 21 24C21.3978 24 21.7794 24.158 22.0607 24.4393C22.342 24.7206 22.5 25.1022 22.5 25.5Z" fill="black"/>
</svg>
