<svg width="30" height="30" viewBox="0 0 30 30" fill="none" xmlns="http://www.w3.org/2000/svg">
<path fill-rule="evenodd" clip-rule="evenodd" d="M15 4.5C14.3106 4.5 13.6279 4.6358 12.9909 4.89963C12.354 5.16347 11.7752 5.55018 11.2877 6.03769C10.8002 6.5252 10.4135 7.10395 10.1496 7.74091C9.8858 8.37787 9.75 9.06056 9.75 9.75C9.75 10.4394 9.8858 11.1221 10.1496 11.7591C10.4135 12.396 10.8002 12.9748 11.2877 13.4623C11.7752 13.9498 12.354 14.3365 12.9909 14.6004C13.6279 14.8642 14.3106 15 15 15C16.3924 15 17.7277 14.4469 18.7123 13.4623C19.6969 12.4777 20.25 11.1424 20.25 9.75C20.25 8.35761 19.6969 7.02226 18.7123 6.03769C17.7277 5.05312 16.3924 4.5 15 4.5ZM12 9.75C12 8.95435 12.3161 8.19129 12.8787 7.62868C13.4413 7.06607 14.2044 6.75 15 6.75C15.7956 6.75 16.5587 7.06607 17.1213 7.62868C17.6839 8.19129 18 8.95435 18 9.75C18 10.5456 17.6839 11.3087 17.1213 11.8713C16.5587 12.4339 15.7956 12.75 15 12.75C14.2044 12.75 13.4413 12.4339 12.8787 11.8713C12.3161 11.3087 12 10.5456 12 9.75Z" fill="black"/>
<path fill-rule="evenodd" clip-rule="evenodd" d="M23.2256 21.3403C22.4105 19.8736 21.2179 18.6514 19.7716 17.8005C18.3252 16.9497 16.6777 16.501 14.9996 16.501C13.3215 16.501 11.674 16.9497 10.2277 17.8005C8.78131 18.6514 7.58878 19.8736 6.77362 21.3403L6.11812 22.5193C5.94866 22.8249 5.86188 23.1693 5.86638 23.5187C5.87087 23.868 5.96649 24.2101 6.14376 24.5112C6.32103 24.8123 6.57382 25.0618 6.87712 25.2352C7.18043 25.4086 7.52375 25.4998 7.87312 25.4998H22.1261C22.4755 25.4998 22.8188 25.4086 23.1221 25.2352C23.4254 25.0618 23.6782 24.8123 23.8555 24.5112C24.0328 24.2101 24.1284 23.868 24.1329 23.5187C24.1374 23.1693 24.0506 22.8249 23.8811 22.5193L23.2256 21.3403ZM8.74012 22.4323C9.36004 21.3158 10.2673 20.3853 11.368 19.7375C12.4686 19.0897 13.7225 18.7481 14.9996 18.7481C16.2767 18.7481 17.5306 19.0897 18.6313 19.7375C19.7319 20.3853 20.6392 21.3158 21.2591 22.4323L21.7121 23.2498H8.28712L8.74012 22.4323Z" fill="black"/>
</svg>
